<svg width="37" height="40" viewBox="0 0 37 40" fill="none" xmlns="http://www.w3.org/2000/svg">
<path d="M14.0343 29.156C14.0343 29.28 13.8952 29.3793 13.7198 29.3793C13.5202 29.3979 13.381 29.2986 13.381 29.156C13.381 29.0319 13.5202 28.9326 13.6956 28.9326C13.877 28.914 14.0343 29.0133 14.0343 29.156ZM12.1532 28.8768C12.1109 29.0009 12.2319 29.1435 12.4133 29.1808C12.5706 29.2428 12.752 29.1808 12.7883 29.0567C12.8246 28.9326 12.7097 28.79 12.5282 28.7341C12.371 28.6907 12.1956 28.7527 12.1532 28.8768ZM14.8266 28.7713C14.6512 28.8148 14.5302 28.9326 14.5484 29.0753C14.5665 29.1994 14.7238 29.28 14.9052 29.2366C15.0806 29.1932 15.2016 29.0753 15.1835 28.9512C15.1653 28.8334 15.002 28.7527 14.8266 28.7713ZM18.8065 5C10.4173 5 4 11.5322 4 20.1362C4 27.0158 8.22177 32.9028 14.252 34.9747C15.0262 35.1174 15.2984 34.6273 15.2984 34.2241C15.2984 33.8395 15.2802 31.718 15.2802 30.4152C15.2802 30.4152 11.0464 31.3457 10.1573 28.5666C10.1573 28.5666 9.46774 26.7614 8.47581 26.2962C8.47581 26.2962 7.09073 25.3223 8.57258 25.3409C8.57258 25.3409 10.0786 25.4649 10.9073 26.9414C12.2319 29.3359 14.4516 28.6473 15.3165 28.2379C15.4556 27.2453 15.8488 26.5567 16.2843 26.1473C12.9032 25.7627 9.49194 25.2602 9.49194 19.2926C9.49194 17.5867 9.95161 16.7306 10.9194 15.6388C10.7621 15.2356 10.248 13.5731 11.0766 11.4267C12.3407 11.0235 15.25 13.1016 15.25 13.1016C16.4597 12.7542 17.7601 12.5743 19.0484 12.5743C20.3367 12.5743 21.6371 12.7542 22.8468 13.1016C22.8468 13.1016 25.756 11.0173 27.0202 11.4267C27.8488 13.5793 27.3347 15.2356 27.1774 15.6388C28.1452 16.7368 28.7379 17.5929 28.7379 19.2926C28.7379 25.2788 25.1754 25.7565 21.7944 26.1473C22.3508 26.6374 22.8226 27.5679 22.8226 29.0257C22.8226 31.1162 22.8044 33.703 22.8044 34.2117C22.8044 34.6149 23.0827 35.105 23.8508 34.9623C29.8992 32.9028 34 27.0158 34 20.1362C34 11.5322 27.1956 5 18.8065 5ZM9.87903 26.3955C9.8004 26.4575 9.81855 26.6002 9.92137 26.718C10.0181 26.8173 10.1573 26.8607 10.2359 26.7801C10.3145 26.718 10.2964 26.5753 10.1935 26.4575C10.0968 26.3582 9.95766 26.3148 9.87903 26.3955ZM9.22581 25.893C9.18347 25.9736 9.24395 26.0729 9.36492 26.1349C9.46169 26.1969 9.58266 26.1783 9.625 26.0915C9.66734 26.0108 9.60685 25.9116 9.48589 25.8496C9.36492 25.8123 9.26815 25.8309 9.22581 25.893ZM11.1855 28.1014C11.0887 28.182 11.125 28.3681 11.2641 28.486C11.4032 28.6287 11.5786 28.6473 11.6573 28.548C11.7359 28.4674 11.6996 28.2813 11.5786 28.1634C11.4456 28.0207 11.2641 28.0021 11.1855 28.1014ZM10.496 27.1895C10.3992 27.2515 10.3992 27.4128 10.496 27.5555C10.5927 27.6982 10.756 27.7602 10.8347 27.6982C10.9315 27.6175 10.9315 27.4562 10.8347 27.3136C10.75 27.1709 10.5927 27.1088 10.496 27.1895Z" fill="white"/>
</svg>
