<svg width="18" height="18" viewBox="0 0 18 18" fill="none" xmlns="http://www.w3.org/2000/svg">
<path d="M6.02056 14.4936C6.02056 14.568 5.9371 14.6276 5.83185 14.6276C5.7121 14.6387 5.62863 14.5792 5.62863 14.4936C5.62863 14.4191 5.7121 14.3596 5.81734 14.3596C5.92621 14.3484 6.02056 14.408 6.02056 14.4936ZM4.89194 14.3261C4.86653 14.4005 4.93911 14.4861 5.04798 14.5085C5.14234 14.5457 5.25121 14.5085 5.27298 14.434C5.29476 14.3596 5.22581 14.274 5.11694 14.2405C5.02258 14.2144 4.91734 14.2516 4.89194 14.3261ZM6.49597 14.2628C6.39073 14.2889 6.31814 14.3596 6.32903 14.4452C6.33992 14.5196 6.43427 14.568 6.54314 14.542C6.64839 14.5159 6.72097 14.4452 6.71008 14.3707C6.69919 14.3 6.60121 14.2516 6.49597 14.2628ZM8.88387 0C3.8504 0 0 3.91929 0 9.08175C0 13.2095 2.53306 16.7417 6.15121 17.9848C6.61573 18.0704 6.77903 17.7764 6.77903 17.5345C6.77903 17.3037 6.76814 16.0308 6.76814 15.2491C6.76814 15.2491 4.22782 15.8074 3.69436 14.14C3.69436 14.14 3.28065 13.0569 2.68548 12.7777C2.68548 12.7777 1.85444 12.1934 2.74355 12.2045C2.74355 12.2045 3.64718 12.279 4.14435 13.1648C4.93911 14.6015 6.27097 14.1884 6.78992 13.9427C6.87339 13.3472 7.10927 12.934 7.37056 12.6884C5.34194 12.4576 3.29516 12.1561 3.29516 8.57555C3.29516 7.55199 3.57097 7.03835 4.15161 6.38328C4.05726 6.14134 3.74879 5.14384 4.24597 3.85602C5.00444 3.61409 6.75 4.86097 6.75 4.86097C7.47581 4.65253 8.25605 4.5446 9.02903 4.5446C9.80202 4.5446 10.5823 4.65253 11.3081 4.86097C11.3081 4.86097 13.0536 3.61037 13.8121 3.85602C14.3093 5.14756 14.0008 6.14134 13.9065 6.38328C14.4871 7.04207 14.8427 7.55571 14.8427 8.57555C14.8427 12.1673 12.7052 12.4539 10.6766 12.6884C11.0105 12.9824 11.2935 13.5407 11.2935 14.4154C11.2935 15.6697 11.2827 17.2218 11.2827 17.527C11.2827 17.769 11.4496 18.063 11.9105 17.9774C15.5395 16.7417 18 13.2095 18 9.08175C18 3.91929 13.9173 0 8.88387 0ZM3.52742 12.8373C3.48024 12.8745 3.49113 12.9601 3.55282 13.0308C3.61089 13.0904 3.69435 13.1164 3.74153 13.068C3.78871 13.0308 3.77782 12.9452 3.71613 12.8745C3.65806 12.8149 3.5746 12.7889 3.52742 12.8373ZM3.13548 12.5358C3.11008 12.5842 3.14637 12.6437 3.21895 12.6809C3.27702 12.7182 3.3496 12.707 3.375 12.6549C3.4004 12.6065 3.36411 12.547 3.29153 12.5097C3.21895 12.4874 3.16089 12.4986 3.13548 12.5358ZM4.31129 13.8608C4.25323 13.9092 4.275 14.0209 4.35847 14.0916C4.44194 14.1772 4.54718 14.1884 4.59435 14.1288C4.64153 14.0804 4.61976 13.9688 4.54718 13.898C4.46734 13.8124 4.35847 13.8013 4.31129 13.8608ZM3.89758 13.3137C3.83952 13.3509 3.83952 13.4477 3.89758 13.5333C3.95565 13.6189 4.05363 13.6561 4.10081 13.6189C4.15887 13.5705 4.15887 13.4737 4.10081 13.3881C4.05 13.3025 3.95565 13.2653 3.89758 13.3137Z" fill="#282A30"/>
</svg>
