<svg width="30" height="30" viewBox="0 0 30 30" fill="none" xmlns="http://www.w3.org/2000/svg">
<path d="M6.71518 26.2499H0.495536V8.72448H6.71518V26.2499ZM3.60201 6.33386C1.61317 6.33386 0 4.89245 0 3.15222C1.42353e-08 2.31632 0.379496 1.51466 1.055 0.923589C1.73051 0.332519 2.6467 0.000460148 3.60201 0.000460148C4.55732 0.000460148 5.47351 0.332519 6.14901 0.923589C6.82452 1.51466 7.20402 2.31632 7.20402 3.15222C7.20402 4.89245 5.59018 6.33386 3.60201 6.33386ZM29.9933 26.2499H23.7871V17.7186C23.7871 15.6854 23.7402 13.078 20.5533 13.078C17.3196 13.078 16.8241 15.287 16.8241 17.5721V26.2499H10.6112V8.72448H16.5763V11.1151H16.6634C17.4937 9.73815 19.5221 8.28503 22.5482 8.28503C28.8429 8.28503 30 11.912 30 16.6229V26.2499H29.9933Z" fill="white"/>
</svg>
