<svg width="41" height="41" viewBox="0 0 41 41" fill="none" xmlns="http://www.w3.org/2000/svg">
<rect width="41" height="41" rx="20.5" fill="url(#paint0_linear_148_6)"/>
<path d="M19.7272 32.128C18.7885 32.128 18.0312 31.856 17.4552 31.312C16.8792 30.7573 16.5912 30.0267 16.5912 29.12V28.016C16.5912 27.9627 16.6072 27.92 16.6392 27.888C16.6819 27.8453 16.7299 27.824 16.7832 27.824H18.6552C18.7085 27.824 18.7512 27.8453 18.7832 27.888C18.8259 27.92 18.8472 27.9627 18.8472 28.016V29.152C18.8472 29.4613 18.9272 29.712 19.0872 29.904C19.2472 30.096 19.4605 30.192 19.7272 30.192C20.0045 30.192 20.2232 30.096 20.3832 29.904C20.5539 29.712 20.6392 29.4613 20.6392 29.152V20.992C20.6392 20.9387 20.6552 20.896 20.6872 20.864C20.7299 20.8213 20.7779 20.8 20.8312 20.8H22.7032C22.7565 20.8 22.7992 20.8213 22.8312 20.864C22.8739 20.896 22.8952 20.9387 22.8952 20.992V29.12C22.8952 30.0267 22.6019 30.7573 22.0152 31.312C21.4392 31.856 20.6765 32.128 19.7272 32.128ZM26.3056 32C26.1882 32 26.1189 31.9413 26.0976 31.824L23.9376 21.008L23.9216 20.944C23.9216 20.848 23.9802 20.8 24.0976 20.8H26.0496C26.1776 20.8 26.2469 20.8587 26.2576 20.976L27.1696 26.736C27.1802 26.7787 27.1962 26.8 27.2176 26.8C27.2389 26.8 27.2549 26.7787 27.2656 26.736L28.1296 20.976C28.1402 20.8587 28.2096 20.8 28.3376 20.8H29.9536C30.0816 20.8 30.1509 20.8587 30.1616 20.976L31.1056 26.736C31.1162 26.7787 31.1322 26.8 31.1536 26.8C31.1749 26.8 31.1909 26.7787 31.2016 26.736L32.0176 20.976C32.0282 20.8587 32.0976 20.8 32.2256 20.8H34.1136C34.2522 20.8 34.3109 20.8693 34.2896 21.008L32.2576 31.824C32.2469 31.9413 32.1776 32 32.0496 32H30.3216C30.1936 32 30.1242 31.9413 30.1136 31.824L29.1696 25.904C29.1589 25.8613 29.1429 25.84 29.1216 25.84C29.1002 25.84 29.0842 25.8613 29.0736 25.904L28.2256 31.824C28.2149 31.9413 28.1456 32 28.0176 32H26.3056Z" fill="white"/>
<defs>
<linearGradient id="paint0_linear_148_6" x1="0" y1="20.5" x2="41" y2="20.5" gradientUnits="userSpaceOnUse">
<stop stop-color="#FF9A9E"/>
<stop offset="0.99" stop-color="#FECFEF"/>
<stop offset="1" stop-color="#FECFEF"/>
</linearGradient>
</defs>
</svg>
